<?xml version="1.0" encoding="utf-8"?>
<!-- Generator: Adobe Illustrator 21.1.0, SVG Export Plug-In . SVG Version: 6.00 Build 0)  -->
<svg version="1.1" id="Capa_1" xmlns="http://www.w3.org/2000/svg" xmlns:xlink="http://www.w3.org/1999/xlink" x="0px" y="0px"
	 viewBox="0 0 100 100" style="enable-background:new 0 0 100 100;" xml:space="preserve">
<style type="text/css">
	.st0{fill:#90E383;}
	.st1{fill:#062536;}
</style>
<g>
	<circle class="st0" cx="50" cy="50" r="47.7"/>
	<g>
		<path class="st1" d="M66.3,29.1c-0.7-0.9-2-0.9-2.8-0.1c-0.7,0.7-0.7,1.8-0.1,2.5c5,6.1,5,14.7,0,20.8c-0.6,0.7-0.6,1.8,0.1,2.5v0
			c0.8,0.8,2.1,0.7,2.8-0.1C72.4,47.2,72.4,36.5,66.3,29.1z"/>
		<path class="st1" d="M58.5,49.2c0.8,0.8,2.2,0.7,2.9-0.3c2.9-4.2,2.9-9.9,0-14.1c-0.7-1-2-1.1-2.9-0.3c-0.6,0.6-0.7,1.6-0.2,2.4
			c2.1,3,2.1,6.9,0,9.9C57.7,47.6,57.8,48.5,58.5,49.2z"/>
		<path class="st1" d="M36.5,31.5c0.6-0.7,0.6-1.8-0.1-2.5v0c-0.8-0.8-2.1-0.7-2.8,0.1c-6.1,7.4-6.1,18.1,0,25.6
			c0.7,0.9,2,0.9,2.8,0.1c0.7-0.7,0.7-1.8,0.1-2.5C31.5,46.2,31.5,37.6,36.5,31.5z"/>
		<path class="st1" d="M38.7,48.9c0.7,1,2,1.1,2.9,0.3c0.6-0.6,0.7-1.6,0.2-2.4c-2.1-3-2.1-6.9,0-9.9c0.5-0.7,0.4-1.7-0.2-2.4
			c-0.8-0.8-2.2-0.7-2.9,0.3C35.8,39.1,35.8,44.7,38.7,48.9z"/>
		<path class="st1" d="M61.9,67.9h-1.3l-8.2-23.1c0.8-0.7,1.4-1.7,1.4-2.8c0-2.1-1.8-3.8-3.9-3.7c-1.8,0.1-3.3,1.6-3.5,3.4
			c-0.1,1.3,0.5,2.4,1.4,3.1l-8.2,23.1h-1.3c-0.6,0-1.1,0.5-1.1,1.1v1.5c0,0.6,0.5,1.1,1.1,1.1h5.2c0.6,0,1.1-0.5,1.1-1.1V69
			c0-0.6-0.5-1.1-1.1-1.1L50,49.3l6.7,18.6c-0.6,0-1.1,0.5-1.1,1.1v1.5c0,0.6,0.5,1.1,1.1,1.1h5.2c0.6,0,1.1-0.5,1.1-1.1V69
			C63,68.4,62.5,67.9,61.9,67.9z"/>
	</g>
</g>
</svg>
