<svg xmlns="http://www.w3.org/2000/svg" width="189.437" height="32" viewBox="0 0 189.437 32">
  <g id="Grupo_720" data-name="Grupo 720" transform="translate(-70.563 -200)">
    <path id="Trazado_1482" data-name="Trazado 1482" d="M-247.192,59.227a25.684,25.684,0,0,1-6.015-.717,29.676,29.676,0,0,1-5.7-1.993,1.361,1.361,0,0,1-.389-.156c-.208-.129-.312-.219-.312-.27a1.465,1.465,0,0,1,.156-.31l.388-.676c.157-.274.338-.583.547-.928s.414-.705.622-1.067q.662-1.085,1.246-2.058c.39-.649.662-1.117.818-1.4a6.4,6.4,0,0,1,.974.468,22.275,22.275,0,0,0,4.223,1.613,17.387,17.387,0,0,0,4.5.565c.44,0,.914-.021,1.421-.058a5.007,5.007,0,0,0,1.381-.294,2.431,2.431,0,0,0,1.031-.72,2.086,2.086,0,0,0,.408-1.383,1.286,1.286,0,0,0-.232-.762,2.517,2.517,0,0,0-.583-.585,5.43,5.43,0,0,0-.74-.447,5.782,5.782,0,0,0-.74-.314,9.313,9.313,0,0,0-1.674-.466q-.858-.157-1.712-.352c-.754-.181-1.494-.352-2.22-.506s-1.428-.338-2.1-.546q-1.05-.314-2-.684a10.665,10.665,0,0,1-1.771-.877,7.594,7.594,0,0,1-2.667-2.709,8.881,8.881,0,0,1-.993-4.5,9.353,9.353,0,0,1,.214-1.97,8.594,8.594,0,0,1,.643-1.891,8.876,8.876,0,0,1,2.219-2.963,10.716,10.716,0,0,1,3.017-1.832,15.5,15.5,0,0,1,3.483-.936,24.912,24.912,0,0,1,3.661-.273,24.566,24.566,0,0,1,5.918.724,19.334,19.334,0,0,1,5.565,2.368q-.973,1.644-1.888,3.228t-1.849,3.217a36.246,36.246,0,0,0-4.379-1.791,14.54,14.54,0,0,0-4.574-.7c-.389,0-.8.018-1.226.057a3.906,3.906,0,0,0-1.188.292,2.241,2.241,0,0,0-.9.681,1.875,1.875,0,0,0-.35,1.185,1.779,1.779,0,0,0,.233.933,2.247,2.247,0,0,0,.993.757,10.679,10.679,0,0,0,1.77.6q1.052.272,2.3.525t2.608.6q1.323.352,2.667.8a15.919,15.919,0,0,1,2.531,1.089,10.123,10.123,0,0,1,2.122,1.516,6.521,6.521,0,0,1,1.479,2.079,6.854,6.854,0,0,1,.584,1.925,13.8,13.8,0,0,1,.155,2.04,8.952,8.952,0,0,1-1.206,4.86,8.912,8.912,0,0,1-3.154,3.01,13.847,13.847,0,0,1-4.4,1.556,27.359,27.359,0,0,1-4.906.447" transform="translate(393.924 172.773)" fill="#739fcb"/>
    <path id="Trazado_1483" data-name="Trazado 1483" d="M-183.432,36.188h-8.291V58.921h-8.215V36.188h-8.292l-.544-.545v-6.93h25.887v6.93Z" transform="translate(372.398 172.144)" fill="#739fcb"/>
    <path id="Trazado_1484" data-name="Trazado 1484" d="M-346.9,58.292v-.855a16.07,16.07,0,0,1-7.4,1.79,15.763,15.763,0,0,1-6.287-1.247,15.758,15.758,0,0,1-5.041-3.405,15.626,15.626,0,0,1-3.348-5.062,16.082,16.082,0,0,1-1.207-6.249,15.821,15.821,0,0,1,1.227-6.189,16.148,16.148,0,0,1,3.387-5.119,15.973,15.973,0,0,1,5.061-3.465,15.461,15.461,0,0,1,6.248-1.266,15.541,15.541,0,0,1,6.794,1.538,16.762,16.762,0,0,1,5.585,4.34l-6.617,4.4a8.71,8.71,0,0,0-2.667-1.849,7.571,7.571,0,0,0-3.095-.643,7.4,7.4,0,0,0-3.173.681,8.243,8.243,0,0,0-2.531,1.81,8.267,8.267,0,0,0-1.674,2.628,8.428,8.428,0,0,0-.6,3.172,8.576,8.576,0,0,0,.6,3.191,8.067,8.067,0,0,0,1.694,2.648,8.468,8.468,0,0,0,2.551,1.81,7.388,7.388,0,0,0,3.172.681,7.772,7.772,0,0,0,3.484-.818,7.808,7.808,0,0,0,2.782-2.3h-5.333V41.242h13.275v17.05Z" transform="translate(440.745 172.773)" fill="#739fcb"/>
    <path id="Trazado_1485" data-name="Trazado 1485" d="M-309.349,58.921V28.713h24.1v7.2h-16.232v4.322h15.3v7.2h-15.3V51.76h16.232v7.161Z" transform="translate(414.986 172.144)" fill="#739fcb"/>
    <path id="Trazado_1486" data-name="Trazado 1486" d="M-159.849,58.862l6.558-17.536,6.561,17.536h8.418l-11.516-30.843h-6.963l-11.477,30.843Z" transform="translate(355.246 172.438)" fill="#0f4561"/>
    <path id="Trazado_1487" data-name="Trazado 1487" d="M-90.945,28.018h-6.964l-7.273,19.545-7.3-19.545h-6.963l-11.476,30.843h8.417l6.561-17.536,6.556,17.53,0,.006h8.422v-.006l6.556-17.53,6.56,17.536h8.418Z" transform="translate(339.43 172.438)" fill="#739fcb"/>
  </g>
</svg>
