<svg xmlns="http://www.w3.org/2000/svg" width="276" height="67.096" viewBox="0 0 276 67.096">
  <g id="Grupo_662" data-name="Grupo 662" transform="translate(-62 -148)">
    <path id="Trazado_1326" data-name="Trazado 1326" d="M-241.517,175.507a37.377,37.377,0,0,1-8.763-1.044,43.236,43.236,0,0,1-8.309-2.9,1.955,1.955,0,0,1-.566-.228c-.3-.188-.455-.318-.455-.392a2.09,2.09,0,0,1,.228-.452c.151-.263.341-.594.565-.986s.492-.848.8-1.352.6-1.027.906-1.554q.965-1.58,1.815-3c.568-.945.965-1.627,1.192-2.04a9.326,9.326,0,0,1,1.419.681,32.452,32.452,0,0,0,6.153,2.35,25.33,25.33,0,0,0,6.55.823c.642,0,1.332-.03,2.071-.084a7.294,7.294,0,0,0,2.013-.428,3.548,3.548,0,0,0,1.5-1.047,3.043,3.043,0,0,0,.594-2.016,1.874,1.874,0,0,0-.339-1.11,3.682,3.682,0,0,0-.849-.853,7.821,7.821,0,0,0-1.079-.65,8.317,8.317,0,0,0-1.078-.458,13.571,13.571,0,0,0-2.439-.68q-1.25-.229-2.494-.512c-1.1-.264-2.176-.513-3.234-.738s-2.081-.492-3.063-.8q-1.53-.457-2.921-1a15.474,15.474,0,0,1-2.581-1.278,11.064,11.064,0,0,1-3.885-3.947,12.94,12.94,0,0,1-1.447-6.56,13.625,13.625,0,0,1,.312-2.87,12.528,12.528,0,0,1,.937-2.755,12.932,12.932,0,0,1,3.232-4.317,15.613,15.613,0,0,1,4.4-2.67,22.58,22.58,0,0,1,5.075-1.364,36.293,36.293,0,0,1,5.333-.4,35.75,35.75,0,0,1,8.622,1.056,28.144,28.144,0,0,1,8.109,3.45q-1.418,2.4-2.751,4.7t-2.694,4.687a52.684,52.684,0,0,0-6.38-2.61,21.184,21.184,0,0,0-6.665-1.019c-.567,0-1.163.027-1.786.083a5.716,5.716,0,0,0-1.73.425,3.265,3.265,0,0,0-1.305.992,2.732,2.732,0,0,0-.51,1.726,2.592,2.592,0,0,0,.34,1.36,3.274,3.274,0,0,0,1.447,1.1,15.554,15.554,0,0,0,2.579.88q1.532.4,3.347.764t3.8.877q1.928.512,3.885,1.16a23.19,23.19,0,0,1,3.687,1.586,14.746,14.746,0,0,1,3.092,2.208,9.51,9.51,0,0,1,2.155,3.029,9.986,9.986,0,0,1,.851,2.8,20.1,20.1,0,0,1,.225,2.972,13.043,13.043,0,0,1-1.756,7.08,12.985,12.985,0,0,1-4.6,4.386,20.176,20.176,0,0,1-6.408,2.266,39.863,39.863,0,0,1-7.148.652" transform="translate(414.492 19.115)" fill="#739fcb"/>
    <path id="Trazado_1327" data-name="Trazado 1327" d="M-171.852,141.262h-12.08v33.121H-195.9V141.262h-12.081l-.792-.795v-10.1h37.716v10.1Z" transform="translate(406.359 18.877)" fill="#739fcb"/>
    <path id="Trazado_1328" data-name="Trazado 1328" d="M-336.266,174.145V172.9a23.412,23.412,0,0,1-10.776,2.608,22.966,22.966,0,0,1-9.159-1.816,22.959,22.959,0,0,1-7.344-4.961,22.763,22.763,0,0,1-4.877-7.374,23.436,23.436,0,0,1-1.759-9.1,23.053,23.053,0,0,1,1.788-9.017,23.527,23.527,0,0,1,4.934-7.458,23.257,23.257,0,0,1,7.374-5.047,22.513,22.513,0,0,1,9.1-1.845,22.631,22.631,0,0,1,9.9,2.242,24.419,24.419,0,0,1,8.136,6.322l-9.64,6.411a12.689,12.689,0,0,0-3.885-2.694,11.031,11.031,0,0,0-4.509-.937,10.78,10.78,0,0,0-4.623.993,12.009,12.009,0,0,0-3.688,2.638,12.043,12.043,0,0,0-2.439,3.829,12.279,12.279,0,0,0-.878,4.622,12.5,12.5,0,0,0,.878,4.649,11.753,11.753,0,0,0,2.468,3.857,12.339,12.339,0,0,0,3.717,2.637,10.764,10.764,0,0,0,4.622.993,11.324,11.324,0,0,0,5.076-1.191,11.365,11.365,0,0,0,4.053-3.347h-7.769V149.3h19.341v24.841Z" transform="translate(432.182 19.115)" fill="#739fcb"/>
    <path id="Trazado_1329" data-name="Trazado 1329" d="M-309.349,174.383V130.371h35.108v10.492h-23.65v6.3H-275.6v10.492h-22.289v6.3h23.65v10.433Z" transform="translate(422.45 18.877)" fill="#739fcb"/>
    <path id="Trazado_1330" data-name="Trazado 1330" d="M-156,174.614l9.555-25.549,9.558,25.549h12.265L-141.4,129.677h-10.145l-16.721,44.937Z" transform="translate(399.878 18.988)" fill="#fff"/>
    <path id="Trazado_1331" data-name="Trazado 1331" d="M-72.68,129.677H-82.826l-10.6,28.476-10.632-28.476H-114.2l-16.72,44.937h12.263l9.559-25.549,9.552,25.54,0,.009h12.271V174.6l9.552-25.54,9.558,25.549H-55.9Z" transform="translate(393.903 18.988)" fill="#739fcb"/>
    <path id="Trazado_1332" data-name="Trazado 1332" d="M-364.806,202.246q-.144-.357-.409-.943t-.6-1.279q-.33-.693-.674-1.429t-.66-1.379q-.316-.644-.56-1.129t-.359-.686q-.186,1.787-.293,3.88t-.193,4.395h-.958q.128-2.7.293-5.174t.407-4.731h.858q.43.714.916,1.651t.967,1.944q.479,1.008.931,1.987t.795,1.766q.344-.786.795-1.766t.931-1.987q.48-1.007.967-1.944t.916-1.651h.815q.243,2.259.407,4.731t.293,5.174h-.986q-.086-2.3-.193-4.395t-.293-3.88q-.113.2-.357.686t-.558,1.129q-.314.643-.657,1.379t-.672,1.429q-.329.693-.593,1.279t-.408.943Z" transform="translate(432.074 8.734)" fill="#739fcb"/>
    <path id="Trazado_1333" data-name="Trazado 1333" d="M-348.35,200.434a4.788,4.788,0,0,1-.25,1.586,3.546,3.546,0,0,1-.7,1.215,3.183,3.183,0,0,1-1.065.779,3.251,3.251,0,0,1-1.357.279,3.248,3.248,0,0,1-1.357-.279,3.191,3.191,0,0,1-1.065-.779,3.545,3.545,0,0,1-.7-1.215,4.788,4.788,0,0,1-.25-1.586,4.789,4.789,0,0,1,.25-1.587,3.633,3.633,0,0,1,.7-1.222,3.167,3.167,0,0,1,1.065-.786,3.248,3.248,0,0,1,1.357-.278,3.251,3.251,0,0,1,1.357.278,3.159,3.159,0,0,1,1.065.786,3.634,3.634,0,0,1,.7,1.222,4.789,4.789,0,0,1,.25,1.587m-.987,0a3.489,3.489,0,0,0-.643-2.208,2.1,2.1,0,0,0-1.744-.822,2.1,2.1,0,0,0-1.744.822,3.49,3.49,0,0,0-.643,2.208,3.46,3.46,0,0,0,.643,2.2,2.1,2.1,0,0,0,1.744.815,2.107,2.107,0,0,0,1.744-.815,3.46,3.46,0,0,0,.643-2.2" transform="translate(429.769 8.288)" fill="#739fcb"/>
    <path id="Trazado_1334" data-name="Trazado 1334" d="M-344.667,196.995q.414-.115,1.115-.258a8.782,8.782,0,0,1,1.715-.142,3.569,3.569,0,0,1,1.408.243,2.168,2.168,0,0,1,.9.693,2.83,2.83,0,0,1,.479,1.079,6.276,6.276,0,0,1,.143,1.386v4.13h-.929V200.3a7.007,7.007,0,0,0-.107-1.329,2.221,2.221,0,0,0-.358-.886,1.387,1.387,0,0,0-.657-.493,2.992,2.992,0,0,0-1.022-.15,7.908,7.908,0,0,0-1.137.071,3.522,3.522,0,0,0-.622.129v6.488h-.929Z" transform="translate(428.1 8.282)" fill="#739fcb"/>
    <path id="Trazado_1335" data-name="Trazado 1335" d="M-333.885,193.975a.692.692,0,0,1-.2.522.673.673,0,0,1-.486.192.675.675,0,0,1-.486-.192.691.691,0,0,1-.2-.522.689.689,0,0,1,.2-.522.672.672,0,0,1,.486-.193.671.671,0,0,1,.486.193.689.689,0,0,1,.2.522m-.215,9.618h-.928V196.2h.928Z" transform="translate(426.595 8.816)" fill="#739fcb"/>
    <path id="Trazado_1336" data-name="Trazado 1336" d="M-330.092,196.319h2.944v.786h-2.944v3.93a4,4,0,0,0,.107,1.022,1.423,1.423,0,0,0,.307.607.964.964,0,0,0,.486.286,2.585,2.585,0,0,0,.629.071,2.707,2.707,0,0,0,.943-.135,4.091,4.091,0,0,0,.558-.25l.228.772a3.4,3.4,0,0,1-.7.293,3.471,3.471,0,0,1-1.086.164,3.244,3.244,0,0,1-1.151-.178,1.674,1.674,0,0,1-.743-.543,2.228,2.228,0,0,1-.392-.907,6.311,6.311,0,0,1-.114-1.287v-6.8l.929-.171Z" transform="translate(425.917 8.701)" fill="#739fcb"/>
    <path id="Trazado_1337" data-name="Trazado 1337" d="M-318.15,200.434a4.788,4.788,0,0,1-.25,1.586,3.545,3.545,0,0,1-.7,1.215,3.188,3.188,0,0,1-1.064.779,3.254,3.254,0,0,1-1.358.279,3.248,3.248,0,0,1-1.357-.279,3.192,3.192,0,0,1-1.065-.779,3.531,3.531,0,0,1-.7-1.215,4.767,4.767,0,0,1-.25-1.586,4.768,4.768,0,0,1,.25-1.587,3.619,3.619,0,0,1,.7-1.222,3.168,3.168,0,0,1,1.065-.786,3.248,3.248,0,0,1,1.357-.278,3.254,3.254,0,0,1,1.358.278,3.165,3.165,0,0,1,1.064.786,3.634,3.634,0,0,1,.7,1.222,4.789,4.789,0,0,1,.25,1.587m-.986,0a3.49,3.49,0,0,0-.643-2.208,2.1,2.1,0,0,0-1.744-.822,2.1,2.1,0,0,0-1.744.822,3.489,3.489,0,0,0-.643,2.208,3.46,3.46,0,0,0,.643,2.2,2.107,2.107,0,0,0,1.744.815,2.106,2.106,0,0,0,1.744-.815,3.46,3.46,0,0,0,.643-2.2" transform="translate(424.937 8.288)" fill="#739fcb"/>
    <path id="Trazado_1338" data-name="Trazado 1338" d="M-311.951,196.6a4.976,4.976,0,0,1,.864.071,2.657,2.657,0,0,1,.565.143l-.186.8a2.035,2.035,0,0,0-.465-.122,5.306,5.306,0,0,0-.922-.064,4.369,4.369,0,0,0-.964.085,2.67,2.67,0,0,0-.48.144v6.474h-.928v-7.046a6.854,6.854,0,0,1,.985-.322,6.157,6.157,0,0,1,1.53-.164" transform="translate(423.268 8.282)" fill="#739fcb"/>
    <path id="Trazado_1339" data-name="Trazado 1339" d="M-308.631,200.42a4.689,4.689,0,0,1,.279-1.693,3.712,3.712,0,0,1,.729-1.208,2.877,2.877,0,0,1,1.029-.722,3.137,3.137,0,0,1,1.194-.236,2.787,2.787,0,0,1,2.165.886,3.953,3.953,0,0,1,.808,2.73q0,.115-.008.229c-.005.076-.012.148-.021.214h-5.189a3.27,3.27,0,0,0,.672,2.087,2.508,2.508,0,0,0,2,.728,4.06,4.06,0,0,0,1.2-.142,4.992,4.992,0,0,0,.644-.244l.171.8a3.826,3.826,0,0,1-.75.271,4.729,4.729,0,0,1-1.294.157,4.306,4.306,0,0,1-1.658-.286,2.968,2.968,0,0,1-1.129-.8,3.16,3.16,0,0,1-.643-1.221,5.68,5.68,0,0,1-.2-1.551m5.246-.586a2.938,2.938,0,0,0-.543-1.8,1.761,1.761,0,0,0-1.458-.643,1.938,1.938,0,0,0-.893.2,2.257,2.257,0,0,0-.685.536,2.475,2.475,0,0,0-.458.779,3.216,3.216,0,0,0-.193.929Z" transform="translate(422.335 8.288)" fill="#739fcb"/>
    <path id="Trazado_1340" data-name="Trazado 1340" d="M-292.561,200.434a4.765,4.765,0,0,1-.25,1.586,3.518,3.518,0,0,1-.7,1.215,3.188,3.188,0,0,1-1.064.779,3.253,3.253,0,0,1-1.357.279,3.255,3.255,0,0,1-1.358-.279,3.179,3.179,0,0,1-1.064-.779,3.518,3.518,0,0,1-.7-1.215,4.767,4.767,0,0,1-.25-1.586,4.768,4.768,0,0,1,.25-1.587,3.605,3.605,0,0,1,.7-1.222,3.155,3.155,0,0,1,1.064-.786,3.255,3.255,0,0,1,1.358-.278,3.253,3.253,0,0,1,1.357.278,3.164,3.164,0,0,1,1.064.786,3.6,3.6,0,0,1,.7,1.222,4.766,4.766,0,0,1,.25,1.587m-.986,0a3.484,3.484,0,0,0-.643-2.208,2.1,2.1,0,0,0-1.743-.822,2.1,2.1,0,0,0-1.744.822,3.484,3.484,0,0,0-.643,2.208,3.455,3.455,0,0,0,.643,2.2,2.1,2.1,0,0,0,1.744.815,2.1,2.1,0,0,0,1.743-.815,3.455,3.455,0,0,0,.643-2.2" transform="translate(420.843 8.288)" fill="#739fcb"/>
    <path id="Trazado_1341" data-name="Trazado 1341" d="M-284.93,203.675v-9.9h5.646v.843h-4.674V198.1h4.145v.843h-4.145v4.731Z" transform="translate(418.543 8.734)" fill="#739fcb"/>
    <path id="Trazado_1342" data-name="Trazado 1342" d="M-275.05,193.975a.694.694,0,0,1-.2.522.677.677,0,0,1-.486.192.675.675,0,0,1-.486-.192.691.691,0,0,1-.2-.522.689.689,0,0,1,.2-.522.672.672,0,0,1,.486-.193.674.674,0,0,1,.486.193.691.691,0,0,1,.2.522m-.215,9.618h-.929V196.2h.929Z" transform="translate(417.182 8.816)" fill="#739fcb"/>
    <path id="Trazado_1343" data-name="Trazado 1343" d="M-270.729,203.464a2.912,2.912,0,0,0,1.322-.265.922.922,0,0,0,.522-.893,1.3,1.3,0,0,0-.092-.515,1.025,1.025,0,0,0-.307-.386,2.643,2.643,0,0,0-.564-.328q-.35-.157-.865-.371c-.276-.115-.538-.231-.785-.35a3.214,3.214,0,0,1-.658-.414,1.816,1.816,0,0,1-.457-.565,1.7,1.7,0,0,1-.172-.8,1.8,1.8,0,0,1,.679-1.458,2.858,2.858,0,0,1,1.866-.558,5.072,5.072,0,0,1,1.251.129,4.008,4.008,0,0,1,.693.228l-.214.829a5.6,5.6,0,0,0-.579-.228,3.787,3.787,0,0,0-1.194-.144,2.629,2.629,0,0,0-.593.065,1.572,1.572,0,0,0-.493.2,1.074,1.074,0,0,0-.344.344.955.955,0,0,0-.129.508,1.071,1.071,0,0,0,.115.516,1.14,1.14,0,0,0,.335.38,2.831,2.831,0,0,0,.543.307q.321.142.736.313t.822.349a3.052,3.052,0,0,1,.694.428,1.985,1.985,0,0,1,.486.6,1.867,1.867,0,0,1,.186.879,1.721,1.721,0,0,1-.75,1.515,3.581,3.581,0,0,1-2.051.514,5.165,5.165,0,0,1-1.486-.164,5.88,5.88,0,0,1-.686-.25l.243-.843a1.573,1.573,0,0,0,.186.093,3.785,3.785,0,0,0,.386.143,4.206,4.206,0,0,0,.579.136,4.721,4.721,0,0,0,.779.057" transform="translate(416.618 8.288)" fill="#739fcb"/>
    <path id="Trazado_1344" data-name="Trazado 1344" d="M-263.736,193.975a.691.691,0,0,1-.2.522.675.675,0,0,1-.486.192.674.674,0,0,1-.486-.192.691.691,0,0,1-.2-.522.689.689,0,0,1,.2-.522.671.671,0,0,1,.486-.193.672.672,0,0,1,.486.193.688.688,0,0,1,.2.522m-.214,9.618h-.929V196.2h.929Z" transform="translate(415.371 8.816)" fill="#739fcb"/>
    <path id="Trazado_1345" data-name="Trazado 1345" d="M-257.829,204.278a3.95,3.95,0,0,1-1.515-.271,2.833,2.833,0,0,1-1.093-.779,3.475,3.475,0,0,1-.665-1.215,5.085,5.085,0,0,1-.229-1.566,5.046,5.046,0,0,1,.236-1.586,3.566,3.566,0,0,1,.679-1.229,2.989,2.989,0,0,1,1.072-.794,3.459,3.459,0,0,1,1.415-.278,5.917,5.917,0,0,1,1.122.1,2.806,2.806,0,0,1,.807.257l-.243.8a3.025,3.025,0,0,0-.643-.228,4.225,4.225,0,0,0-.958-.086,2.248,2.248,0,0,0-1.866.793,3.515,3.515,0,0,0-.636,2.25,4.812,4.812,0,0,0,.143,1.208,2.428,2.428,0,0,0,.465.943,2.172,2.172,0,0,0,.829.615,3.082,3.082,0,0,0,1.237.222,3.21,3.21,0,0,0,1.007-.136,4.015,4.015,0,0,0,.593-.236l.2.8a3.528,3.528,0,0,1-.808.279,4.814,4.814,0,0,1-1.15.135" transform="translate(414.767 8.288)" fill="#739fcb"/>
    <path id="Trazado_1346" data-name="Trazado 1346" d="M-246.758,200.434a4.788,4.788,0,0,1-.25,1.586,3.545,3.545,0,0,1-.7,1.215,3.183,3.183,0,0,1-1.065.779,3.251,3.251,0,0,1-1.357.279,3.248,3.248,0,0,1-1.357-.279,3.191,3.191,0,0,1-1.065-.779,3.532,3.532,0,0,1-.7-1.215,4.789,4.789,0,0,1-.249-1.586,4.79,4.79,0,0,1,.249-1.587,3.619,3.619,0,0,1,.7-1.222,3.167,3.167,0,0,1,1.065-.786,3.248,3.248,0,0,1,1.357-.278,3.251,3.251,0,0,1,1.357.278,3.159,3.159,0,0,1,1.065.786,3.634,3.634,0,0,1,.7,1.222,4.789,4.789,0,0,1,.25,1.587m-.987,0a3.49,3.49,0,0,0-.643-2.208,2.1,2.1,0,0,0-1.744-.822,2.1,2.1,0,0,0-1.744.822,3.489,3.489,0,0,0-.643,2.208,3.46,3.46,0,0,0,.643,2.2,2.1,2.1,0,0,0,1.744.815,2.107,2.107,0,0,0,1.744-.815,3.46,3.46,0,0,0,.643-2.2" transform="translate(413.515 8.288)" fill="#739fcb"/>
    <path id="Trazado_1347" data-name="Trazado 1347" d="M-238.214,203.7a3.343,3.343,0,0,1-.779.393,3.508,3.508,0,0,1-1.265.208,3.37,3.37,0,0,1-1.422-.286,2.99,2.99,0,0,1-1.05-.793,3.439,3.439,0,0,1-.65-1.216,5.157,5.157,0,0,1-.222-1.551,4.646,4.646,0,0,1,.264-1.615,3.477,3.477,0,0,1,.743-1.215,3.215,3.215,0,0,1,1.143-.765,3.989,3.989,0,0,1,1.48-.264,8.538,8.538,0,0,1,1.629.129,8.429,8.429,0,0,1,1.058.271v9.776h-.929Zm0-6.06a4.083,4.083,0,0,0-.636-.136,7.641,7.641,0,0,0-1.107-.065,2.518,2.518,0,0,0-1.93.78,3.151,3.151,0,0,0-.729,2.236,5.107,5.107,0,0,0,.129,1.165,2.723,2.723,0,0,0,.414.958,2.01,2.01,0,0,0,.75.644,2.53,2.53,0,0,0,1.151.236,3,3,0,0,0,.629-.065,3.618,3.618,0,0,0,.558-.165,3.048,3.048,0,0,0,.45-.214,3.2,3.2,0,0,0,.321-.214Z" transform="translate(411.931 8.282)" fill="#739fcb"/>
    <path id="Trazado_1348" data-name="Trazado 1348" d="M-227.5,203.9q-.415.115-1.115.257a8.763,8.763,0,0,1-1.715.144,3.469,3.469,0,0,1-1.386-.244,2.258,2.258,0,0,1-.9-.685,2.782,2.782,0,0,1-.493-1.073,5.977,5.977,0,0,1-.15-1.386v-4.145h.929v3.846a6.544,6.544,0,0,0,.115,1.329,2.149,2.149,0,0,0,.371.879,1.448,1.448,0,0,0,.664.486,2.886,2.886,0,0,0,.994.15,7.942,7.942,0,0,0,1.143-.071,3.036,3.036,0,0,0,.614-.129v-6.489h.929Z" transform="translate(410.276 8.255)" fill="#739fcb"/>
    <path id="Trazado_1349" data-name="Trazado 1349" d="M-221.137,193.138l-2.444,1.987-.472-.544,2.258-2.172Zm-1.5,10.319h-.928v-7.389h.928Z" transform="translate(408.803 8.952)" fill="#739fcb"/>
    <path id="Trazado_1350" data-name="Trazado 1350" d="M-219.442,196.995q.415-.115,1.079-.258a8.481,8.481,0,0,1,1.722-.142,2.4,2.4,0,0,1,2.029.815c.047-.039.14-.1.279-.193a3.819,3.819,0,0,1,.522-.279,4.017,4.017,0,0,1,.736-.243,4.034,4.034,0,0,1,.937-.1,3.18,3.18,0,0,1,1.364.249,1.914,1.914,0,0,1,.808.7,2.815,2.815,0,0,1,.386,1.079,8.8,8.8,0,0,1,.1,1.372v4.13h-.929V200.3a10.8,10.8,0,0,0-.064-1.264,2.452,2.452,0,0,0-.258-.886,1.255,1.255,0,0,0-.55-.529,2.08,2.08,0,0,0-.929-.179,3.581,3.581,0,0,0-.779.079,3.273,3.273,0,0,0-.607.193,2.576,2.576,0,0,0-.422.228c-.11.076-.188.134-.236.171a4.419,4.419,0,0,1,.193.836,7.156,7.156,0,0,1,.065.979v4.2h-.929V200.3a10.771,10.771,0,0,0-.065-1.264,2.338,2.338,0,0,0-.265-.886,1.288,1.288,0,0,0-.565-.529,2.2,2.2,0,0,0-.964-.179,7.721,7.721,0,0,0-1.137.071,3,3,0,0,0-.593.129v6.488h-.929Z" transform="translate(408.065 8.282)" fill="#739fcb"/>
    <path id="Trazado_1351" data-name="Trazado 1351" d="M-203.659,193.975a.691.691,0,0,1-.2.522.673.673,0,0,1-.486.192.675.675,0,0,1-.486-.192.691.691,0,0,1-.2-.522.689.689,0,0,1,.2-.522.673.673,0,0,1,.486-.193.671.671,0,0,1,.486.193.688.688,0,0,1,.2.522m-.214,9.618h-.929V196.2h.929Z" transform="translate(405.76 8.816)" fill="#739fcb"/>
    <path id="Trazado_1352" data-name="Trazado 1352" d="M-197.752,204.278a3.953,3.953,0,0,1-1.515-.271,2.839,2.839,0,0,1-1.093-.779,3.489,3.489,0,0,1-.665-1.215,5.087,5.087,0,0,1-.228-1.566,5.045,5.045,0,0,1,.236-1.586,3.581,3.581,0,0,1,.679-1.229,3,3,0,0,1,1.072-.794,3.461,3.461,0,0,1,1.415-.278,5.914,5.914,0,0,1,1.121.1,2.813,2.813,0,0,1,.808.257l-.244.8a3.024,3.024,0,0,0-.643-.228,4.225,4.225,0,0,0-.958-.086,2.248,2.248,0,0,0-1.866.793,3.515,3.515,0,0,0-.636,2.25,4.813,4.813,0,0,0,.143,1.208,2.418,2.418,0,0,0,.465.943,2.162,2.162,0,0,0,.828.615,3.082,3.082,0,0,0,1.237.222,3.22,3.22,0,0,0,1.008-.136,4.056,4.056,0,0,0,.593-.236l.2.8a3.519,3.519,0,0,1-.807.279,4.826,4.826,0,0,1-1.151.135" transform="translate(405.156 8.288)" fill="#739fcb"/>
    <path id="Trazado_1353" data-name="Trazado 1353" d="M-186.681,200.434a4.787,4.787,0,0,1-.25,1.586,3.545,3.545,0,0,1-.7,1.215,3.188,3.188,0,0,1-1.064.779,3.254,3.254,0,0,1-1.358.279,3.251,3.251,0,0,1-1.357-.279,3.191,3.191,0,0,1-1.065-.779,3.545,3.545,0,0,1-.7-1.215,4.788,4.788,0,0,1-.249-1.586,4.789,4.789,0,0,1,.249-1.587,3.634,3.634,0,0,1,.7-1.222,3.167,3.167,0,0,1,1.065-.786,3.251,3.251,0,0,1,1.357-.278,3.254,3.254,0,0,1,1.358.278,3.164,3.164,0,0,1,1.064.786,3.633,3.633,0,0,1,.7,1.222,4.789,4.789,0,0,1,.25,1.587m-.986,0a3.484,3.484,0,0,0-.643-2.208,2.1,2.1,0,0,0-1.744-.822,2.1,2.1,0,0,0-1.744.822,3.489,3.489,0,0,0-.643,2.208,3.46,3.46,0,0,0,.643,2.2,2.107,2.107,0,0,0,1.744.815,2.1,2.1,0,0,0,1.744-.815,3.455,3.455,0,0,0,.643-2.2" transform="translate(403.903 8.288)" fill="#739fcb"/>
    <path id="Trazado_1354" data-name="Trazado 1354" d="M-177.335,204.311q-.465-.874-.9-1.816t-.818-1.908q-.381-.964-.7-1.928t-.542-1.894h.986q.156.685.4,1.479t.549,1.637q.306.843.678,1.73t.81,1.742q.318-.882.564-1.668t.455-1.563q.209-.779.4-1.593t.4-1.764h.929q-.465,2.074-1.046,4.034a33.8,33.8,0,0,1-1.268,3.583,8.067,8.067,0,0,1-.559,1.108,3.227,3.227,0,0,1-.638.764,2.253,2.253,0,0,1-.818.444,3.774,3.774,0,0,1-1.1.143,2.329,2.329,0,0,1-.654-.086,2.1,2.1,0,0,1-.366-.129l.186-.772a1.346,1.346,0,0,0,.322.121,1.918,1.918,0,0,0,.552.079,2.825,2.825,0,0,0,.724-.086,1.545,1.545,0,0,0,.58-.293,2.145,2.145,0,0,0,.466-.536,4.791,4.791,0,0,0,.4-.829" transform="translate(401.846 8.255)" fill="#739fcb"/>
    <path id="Trazado_1355" data-name="Trazado 1355" d="M-160.65,203.675q-.283-.73-.522-1.4t-.454-1.313h-4.839q-.247.643-.485,1.316t-.5,1.4h-1.014q.563-1.546,1.066-2.882t.984-2.528q.483-1.192.959-2.291t1-2.2h.857q.523,1.1.995,2.2t.954,2.293q.484,1.191.981,2.528t1.095,2.882Zm-3.408-8.79q-.538,1.235-1.047,2.5t-1.055,2.741h4.228q-.548-1.473-1.068-2.745t-1.057-2.5" transform="translate(399.91 8.734)" fill="#739fcb"/>
    <path id="Trazado_1356" data-name="Trazado 1356" d="M-156.268,196.995q.415-.115,1.115-.258a8.776,8.776,0,0,1,1.715-.142,3.569,3.569,0,0,1,1.408.243,2.168,2.168,0,0,1,.9.693,2.842,2.842,0,0,1,.479,1.079,6.278,6.278,0,0,1,.143,1.386v4.13h-.929V200.3a7.077,7.077,0,0,0-.107-1.329,2.234,2.234,0,0,0-.358-.886,1.393,1.393,0,0,0-.658-.493,2.986,2.986,0,0,0-1.021-.15,7.908,7.908,0,0,0-1.137.071,3.5,3.5,0,0,0-.622.129v6.488h-.929Z" transform="translate(397.958 8.282)" fill="#739fcb"/>
    <path id="Trazado_1357" data-name="Trazado 1357" d="M-144.447,195.9a3.282,3.282,0,0,1,1.237.207,2.123,2.123,0,0,1,.821.572,2.249,2.249,0,0,1,.458.864,3.965,3.965,0,0,1,.143,1.087v4.659a4.248,4.248,0,0,1-.415.093c-.181.034-.391.069-.628.107s-.5.069-.793.093-.589.035-.894.035a4.267,4.267,0,0,1-1.079-.128,2.381,2.381,0,0,1-.858-.407,1.927,1.927,0,0,1-.572-.715,2.463,2.463,0,0,1-.207-1.065A2.155,2.155,0,0,1-147,200.27a1.941,1.941,0,0,1,.643-.707,2.886,2.886,0,0,1,.986-.407,5.67,5.67,0,0,1,1.244-.129c.133,0,.273.007.421.021s.292.034.429.057.257.048.357.071a1.1,1.1,0,0,1,.207.065v-.457a4.873,4.873,0,0,0-.057-.751,1.636,1.636,0,0,0-.25-.657,1.385,1.385,0,0,0-.543-.472,2.046,2.046,0,0,0-.922-.179,4.787,4.787,0,0,0-1.215.114c-.267.077-.462.139-.586.186l-.129-.815a3.421,3.421,0,0,1,.751-.214,6.369,6.369,0,0,1,1.221-.1m.087,6.889c.361,0,.679-.012.95-.036a6.282,6.282,0,0,0,.693-.093v-2.6a2.877,2.877,0,0,0-.5-.15,4.457,4.457,0,0,0-.944-.079,5.458,5.458,0,0,0-.714.05,2.075,2.075,0,0,0-.686.214,1.432,1.432,0,0,0-.515.45,1.3,1.3,0,0,0-.2.758,1.624,1.624,0,0,0,.135.7,1.128,1.128,0,0,0,.386.457,1.688,1.688,0,0,0,.6.25,3.607,3.607,0,0,0,.794.079m2.115-9.648-2.444,1.987-.471-.544,2.258-2.172Z" transform="translate(396.513 8.952)" fill="#739fcb"/>
    <path id="Trazado_1358" data-name="Trazado 1358" d="M-136.057,203.577a3.138,3.138,0,0,1-.822-.121,1.466,1.466,0,0,1-.586-.329,1.385,1.385,0,0,1-.357-.571,2.7,2.7,0,0,1-.122-.879v-9.147l.929-.171v9.29a1.915,1.915,0,0,0,.065.551.749.749,0,0,0,.192.328.794.794,0,0,0,.336.179,4.325,4.325,0,0,0,.493.1Z" transform="translate(395.027 8.96)" fill="#739fcb"/>
    <path id="Trazado_1359" data-name="Trazado 1359" d="M-132.488,193.975a.694.694,0,0,1-.2.522.675.675,0,0,1-.486.192.672.672,0,0,1-.486-.192.692.692,0,0,1-.2-.522.689.689,0,0,1,.2-.522.669.669,0,0,1,.486-.193.673.673,0,0,1,.486.193.692.692,0,0,1,.2.522m-.214,9.618h-.929V196.2h.929Z" transform="translate(394.374 8.816)" fill="#739fcb"/>
    <path id="Trazado_1360" data-name="Trazado 1360" d="M-128.166,203.464a2.917,2.917,0,0,0,1.322-.265.923.923,0,0,0,.522-.893,1.285,1.285,0,0,0-.093-.515,1.016,1.016,0,0,0-.307-.386,2.644,2.644,0,0,0-.564-.328q-.35-.157-.864-.371c-.276-.115-.538-.231-.786-.35a3.236,3.236,0,0,1-.658-.414,1.816,1.816,0,0,1-.457-.565,1.7,1.7,0,0,1-.171-.8,1.8,1.8,0,0,1,.679-1.458,2.856,2.856,0,0,1,1.865-.558,5.068,5.068,0,0,1,1.251.129,4.008,4.008,0,0,1,.693.228l-.214.829a5.52,5.52,0,0,0-.579-.228,3.787,3.787,0,0,0-1.194-.144,2.635,2.635,0,0,0-.593.065,1.572,1.572,0,0,0-.493.2,1.071,1.071,0,0,0-.343.344.947.947,0,0,0-.129.508,1.08,1.08,0,0,0,.115.516,1.14,1.14,0,0,0,.335.38,2.833,2.833,0,0,0,.543.307q.321.142.736.313.43.17.822.349a3.013,3.013,0,0,1,.694.428,1.985,1.985,0,0,1,.486.6,1.857,1.857,0,0,1,.186.879,1.72,1.72,0,0,1-.751,1.515,3.58,3.58,0,0,1-2.05.514,5.168,5.168,0,0,1-1.487-.164,5.947,5.947,0,0,1-.686-.25l.244-.843a1.468,1.468,0,0,0,.186.093,3.787,3.787,0,0,0,.386.143,4.207,4.207,0,0,0,.579.136,4.731,4.731,0,0,0,.78.057" transform="translate(393.81 8.288)" fill="#739fcb"/>
    <path id="Trazado_1361" data-name="Trazado 1361" d="M-121.174,193.975a.691.691,0,0,1-.2.522.675.675,0,0,1-.486.192.675.675,0,0,1-.486-.192.691.691,0,0,1-.2-.522.689.689,0,0,1,.2-.522.673.673,0,0,1,.486-.193.672.672,0,0,1,.486.193.688.688,0,0,1,.2.522m-.213,9.618h-.93V196.2h.93Z" transform="translate(392.563 8.816)" fill="#739fcb"/>
    <path id="Trazado_1362" data-name="Trazado 1362" d="M-116.852,203.464a2.915,2.915,0,0,0,1.322-.265.922.922,0,0,0,.522-.893,1.3,1.3,0,0,0-.092-.515,1.025,1.025,0,0,0-.307-.386,2.644,2.644,0,0,0-.564-.328q-.35-.157-.864-.371c-.277-.115-.539-.231-.786-.35a3.235,3.235,0,0,1-.658-.414,1.819,1.819,0,0,1-.458-.565,1.71,1.71,0,0,1-.171-.8,1.8,1.8,0,0,1,.679-1.458,2.859,2.859,0,0,1,1.866-.558,5.067,5.067,0,0,1,1.251.129,4.007,4.007,0,0,1,.693.228l-.214.829a5.6,5.6,0,0,0-.579-.228,3.787,3.787,0,0,0-1.194-.144,2.642,2.642,0,0,0-.594.065,1.576,1.576,0,0,0-.492.2,1.074,1.074,0,0,0-.344.344.947.947,0,0,0-.129.508,1.08,1.08,0,0,0,.114.516,1.153,1.153,0,0,0,.336.38,2.831,2.831,0,0,0,.543.307q.321.142.736.313t.822.349a3.007,3.007,0,0,1,.693.428,1.988,1.988,0,0,1,.486.6,1.857,1.857,0,0,1,.186.879,1.719,1.719,0,0,1-.75,1.515,3.582,3.582,0,0,1-2.051.514,5.166,5.166,0,0,1-1.486-.164,5.879,5.879,0,0,1-.686-.25l.243-.843a1.5,1.5,0,0,0,.186.093,3.787,3.787,0,0,0,.386.143,4.206,4.206,0,0,0,.579.136,4.721,4.721,0,0,0,.779.057" transform="translate(392 8.288)" fill="#739fcb"/>
    <path id="Trazado_1363" data-name="Trazado 1363" d="M-101.29,203.22a8.391,8.391,0,0,1-1.058.271,8.543,8.543,0,0,1-1.63.128,3.953,3.953,0,0,1-1.479-.265,3.179,3.179,0,0,1-1.143-.764,3.475,3.475,0,0,1-.743-1.215,4.626,4.626,0,0,1-.265-1.615,5.169,5.169,0,0,1,.221-1.552,3.526,3.526,0,0,1,.651-1.221,2.95,2.95,0,0,1,1.05-.8,3.369,3.369,0,0,1,1.422-.286,3.509,3.509,0,0,1,1.265.207,3.343,3.343,0,0,1,.779.393v-3.973l.929-.171Zm-.929-5.817a3.2,3.2,0,0,0-.321-.214,3.133,3.133,0,0,0-.45-.215,3.808,3.808,0,0,0-.558-.164,3,3,0,0,0-.629-.065,2.458,2.458,0,0,0-1.15.244,2.078,2.078,0,0,0-.751.65,2.729,2.729,0,0,0-.414.958,5.111,5.111,0,0,0-.129,1.165,3.151,3.151,0,0,0,.729,2.236,2.515,2.515,0,0,0,1.929.78,7.636,7.636,0,0,0,1.108-.065,3.964,3.964,0,0,0,.636-.136Z" transform="translate(390.173 8.96)" fill="#739fcb"/>
    <path id="Trazado_1364" data-name="Trazado 1364" d="M-97.688,200.42a4.688,4.688,0,0,1,.279-1.693,3.711,3.711,0,0,1,.729-1.208,2.869,2.869,0,0,1,1.029-.722,3.133,3.133,0,0,1,1.193-.236,2.787,2.787,0,0,1,2.166.886,3.953,3.953,0,0,1,.807,2.73q0,.115-.008.229c0,.076-.012.148-.021.214H-96.7a3.269,3.269,0,0,0,.671,2.087,2.511,2.511,0,0,0,2,.728,4.06,4.06,0,0,0,1.2-.142,4.988,4.988,0,0,0,.643-.244l.171.8a3.825,3.825,0,0,1-.75.271,4.734,4.734,0,0,1-1.294.157,4.3,4.3,0,0,1-1.658-.286,2.955,2.955,0,0,1-1.129-.8,3.161,3.161,0,0,1-.643-1.221,5.68,5.68,0,0,1-.2-1.551m5.245-.586a2.932,2.932,0,0,0-.543-1.8,1.762,1.762,0,0,0-1.458-.643,1.938,1.938,0,0,0-.893.2,2.27,2.27,0,0,0-.686.536,2.489,2.489,0,0,0-.457.779,3.19,3.19,0,0,0-.193.929Z" transform="translate(388.586 8.288)" fill="#739fcb"/>
    <path id="Trazado_1365" data-name="Trazado 1365" d="M-76.028,198.7a5.639,5.639,0,0,1-.4,2.216,4.254,4.254,0,0,1-1.121,1.572,4.766,4.766,0,0,1-1.723.943,7.3,7.3,0,0,1-2.2.314c-.4,0-.82-.021-1.257-.064a7.7,7.7,0,0,1-1.158-.193v-9.548a6.6,6.6,0,0,1,1.158-.207c.438-.043.858-.065,1.257-.065a7.325,7.325,0,0,1,2.2.314,4.766,4.766,0,0,1,1.723.943,4.264,4.264,0,0,1,1.121,1.572,5.6,5.6,0,0,1,.4,2.2m-6.889,4.1c.057.009.2.029.436.056a10.115,10.115,0,0,0,1.121.043,5.451,5.451,0,0,0,1.872-.292,3.642,3.642,0,0,0,1.344-.837,3.424,3.424,0,0,0,.814-1.322,5.281,5.281,0,0,0,.272-1.751,5.226,5.226,0,0,0-.272-1.744,3.444,3.444,0,0,0-.814-1.315,3.651,3.651,0,0,0-1.344-.836,5.45,5.45,0,0,0-1.872-.293,10.33,10.33,0,0,0-1.121.043q-.35.043-.436.057Z" transform="translate(386.378 8.75)" fill="#739fcb"/>
    <path id="Trazado_1366" data-name="Trazado 1366" d="M-69.873,196.561a3.285,3.285,0,0,1,1.236.207,2.136,2.136,0,0,1,.822.572,2.237,2.237,0,0,1,.457.864,3.927,3.927,0,0,1,.144,1.086v4.66a4.243,4.243,0,0,1-.415.093c-.181.034-.391.069-.628.107s-.5.069-.793.093-.589.036-.894.036a4.277,4.277,0,0,1-1.079-.129,2.382,2.382,0,0,1-.857-.407,1.919,1.919,0,0,1-.572-.715,2.475,2.475,0,0,1-.208-1.065,2.165,2.165,0,0,1,.228-1.029,1.951,1.951,0,0,1,.643-.707,2.884,2.884,0,0,1,.986-.407,5.663,5.663,0,0,1,1.243-.129c.134,0,.274.007.422.021s.291.034.429.057.257.048.357.071a1.124,1.124,0,0,1,.207.065v-.457a4.874,4.874,0,0,0-.057-.751,1.649,1.649,0,0,0-.25-.657,1.387,1.387,0,0,0-.543-.472,2.042,2.042,0,0,0-.921-.179,4.794,4.794,0,0,0-1.215.114c-.267.077-.463.139-.586.186l-.129-.815a3.409,3.409,0,0,1,.75-.214,6.384,6.384,0,0,1,1.222-.1m.086,6.889c.362,0,.679-.013.95-.036a6.276,6.276,0,0,0,.694-.093v-2.6a2.874,2.874,0,0,0-.5-.15,4.454,4.454,0,0,0-.944-.079,5.459,5.459,0,0,0-.714.05,2.056,2.056,0,0,0-.686.215,1.412,1.412,0,0,0-.514.449,1.29,1.29,0,0,0-.2.758,1.623,1.623,0,0,0,.136.7,1.133,1.133,0,0,0,.386.457,1.708,1.708,0,0,0,.6.25,3.6,3.6,0,0,0,.793.079" transform="translate(384.582 8.288)" fill="#739fcb"/>
    <path id="Trazado_1367" data-name="Trazado 1367" d="M-62.492,196.319h2.944v.786h-2.944v3.93a3.993,3.993,0,0,0,.108,1.022,1.422,1.422,0,0,0,.307.607.966.966,0,0,0,.486.286,2.58,2.58,0,0,0,.629.071,2.707,2.707,0,0,0,.943-.135,4.124,4.124,0,0,0,.557-.25l.228.772a3.365,3.365,0,0,1-.7.293,3.48,3.48,0,0,1-1.087.164,3.236,3.236,0,0,1-1.15-.178,1.666,1.666,0,0,1-.743-.543,2.229,2.229,0,0,1-.393-.907,6.309,6.309,0,0,1-.114-1.287v-6.8l.929-.171Z" transform="translate(383.104 8.701)" fill="#739fcb"/>
    <path id="Trazado_1368" data-name="Trazado 1368" d="M-50.55,200.434a4.788,4.788,0,0,1-.25,1.586,3.532,3.532,0,0,1-.7,1.215,3.188,3.188,0,0,1-1.064.779,3.254,3.254,0,0,1-1.358.279,3.251,3.251,0,0,1-1.357-.279,3.191,3.191,0,0,1-1.065-.779,3.53,3.53,0,0,1-.7-1.215,4.766,4.766,0,0,1-.25-1.586,4.768,4.768,0,0,1,.25-1.587,3.618,3.618,0,0,1,.7-1.222,3.167,3.167,0,0,1,1.065-.786,3.251,3.251,0,0,1,1.357-.278,3.254,3.254,0,0,1,1.358.278,3.164,3.164,0,0,1,1.064.786,3.62,3.62,0,0,1,.7,1.222,4.789,4.789,0,0,1,.25,1.587m-.986,0a3.484,3.484,0,0,0-.643-2.208,2.1,2.1,0,0,0-1.744-.822,2.1,2.1,0,0,0-1.743.822,3.484,3.484,0,0,0-.643,2.208,3.455,3.455,0,0,0,.643,2.2,2.1,2.1,0,0,0,1.743.815,2.1,2.1,0,0,0,1.744-.815,3.455,3.455,0,0,0,.643-2.2" transform="translate(382.124 8.288)" fill="#739fcb"/>
    <path id="Trazado_1369" data-name="Trazado 1369" d="M-45.477,203.464a2.915,2.915,0,0,0,1.322-.265.922.922,0,0,0,.522-.893,1.285,1.285,0,0,0-.093-.515,1.022,1.022,0,0,0-.307-.386,2.652,2.652,0,0,0-.565-.328c-.233-.1-.522-.228-.864-.371-.276-.115-.538-.231-.785-.35a3.19,3.19,0,0,1-.658-.414,1.819,1.819,0,0,1-.458-.565,1.71,1.71,0,0,1-.171-.8,1.8,1.8,0,0,1,.679-1.458,2.858,2.858,0,0,1,1.866-.558,5.06,5.06,0,0,1,1.25.129,3.956,3.956,0,0,1,.693.228l-.213.829a5.632,5.632,0,0,0-.58-.228,3.783,3.783,0,0,0-1.194-.144,2.64,2.64,0,0,0-.593.065,1.58,1.58,0,0,0-.493.2,1.071,1.071,0,0,0-.343.344.947.947,0,0,0-.129.508,1.08,1.08,0,0,0,.114.516,1.153,1.153,0,0,0,.336.38,2.823,2.823,0,0,0,.543.307c.215.095.459.2.737.313s.559.23.822.349a3.025,3.025,0,0,1,.693.428,2,2,0,0,1,.486.6,1.867,1.867,0,0,1,.186.879,1.721,1.721,0,0,1-.75,1.515,3.584,3.584,0,0,1-2.051.514,5.165,5.165,0,0,1-1.486-.164,5.819,5.819,0,0,1-.686-.25l.243-.843a1.535,1.535,0,0,0,.186.093,3.892,3.892,0,0,0,.386.143,4.148,4.148,0,0,0,.579.136,4.714,4.714,0,0,0,.779.057" transform="translate(380.58 8.288)" fill="#739fcb"/>
  </g>
</svg>
