<svg xmlns="http://www.w3.org/2000/svg" width="94.361" height="62.587" viewBox="0 0 94.361 62.587">
  <path id="Trazado_1514" data-name="Trazado 1514" d="M357.642,403.324a8.665,8.665,0,0,0,.864-3.84,9.115,9.115,0,0,0-9.119-9.119H349.1a21.025,21.025,0,0,0-20.35-15.647,21.384,21.384,0,0,0-16.8,8.256,15.979,15.979,0,0,0-7.68-1.92,16.612,16.612,0,0,0-16.606,16.606,17.854,17.854,0,0,0,.48,4.032,17.947,17.947,0,0,0,3.168,35.613h58.46a17.888,17.888,0,0,0,7.871-33.981Z" transform="translate(-273.36 -374.718)" fill="#fff"/>
</svg>
