<?xml version="1.0" encoding="utf-8"?>
<!-- Generator: Adobe Illustrator 21.1.0, SVG Export Plug-In . SVG Version: 6.00 Build 0)  -->
<svg version="1.1" id="Capa_1" xmlns="http://www.w3.org/2000/svg" xmlns:xlink="http://www.w3.org/1999/xlink" x="0px" y="0px"
	 viewBox="0 0 100 100" style="enable-background:new 0 0 100 100;" xml:space="preserve">
<style type="text/css">
	.st0{fill:#F26363;}
	.st1{fill:#062536;}
	.st2{fill:#FFFFFF;}
</style>
<g>
	<circle class="st0" cx="50" cy="50" r="47.7"/>
	<g>
		<path class="st1" d="M41.1,38.1H23.2c-1.6,0-3-1.3-3-3s1.3-3,3-3h17.9c1.6,0,3,1.3,3,3S42.7,38.1,41.1,38.1z"/>
		<path class="st1" d="M76.8,38.1H58.9c-1.6,0-3-1.3-3-3s1.3-3,3-3h17.9c1.6,0,3,1.3,3,3S78.5,38.1,76.8,38.1z"/>
		<path class="st1" d="M64.9,72.4c-0.6,0-1.1-0.2-1.7-0.5c-8-5.4-18.4-5.4-26.5,0c-1.4,0.9-3.2,0.5-4.1-0.8
			c-0.9-1.4-0.5-3.2,0.8-4.1c10.1-6.7,23.1-6.7,33.1,0c1.4,0.9,1.7,2.8,0.8,4.1C66.8,71.9,65.9,72.4,64.9,72.4z"/>
	</g>
	<g>
		<path class="st2" d="M38.1,91.7V38.1H26.2v53.6c-3.3,0-6,2.7-6,6h6h11.9h6C44,94.4,41.4,91.7,38.1,91.7z"/>
		<path class="st2" d="M73.8,91.7V38.1H61.9v53.6c-3.3,0-6,2.7-6,6h6h11.9h6C79.8,94.4,77.1,91.7,73.8,91.7z"/>
	</g>
</g>
</svg>
