<?xml version="1.0" encoding="utf-8"?>
<!-- Generator: Adobe Illustrator 21.1.0, SVG Export Plug-In . SVG Version: 6.00 Build 0)  -->
<svg version="1.1" id="Capa_1" xmlns="http://www.w3.org/2000/svg" xmlns:xlink="http://www.w3.org/1999/xlink" x="0px" y="0px"
	 viewBox="0 0 100 100" style="enable-background:new 0 0 100 100;" xml:space="preserve">
<style type="text/css">
	.st0{fill:#F39E49;}
	.st1{fill:#062536;}
</style>
<g>
	<circle class="st0" cx="50" cy="50" r="47.7"/>
	<g>
		<path class="st1" d="M70.9,50c-0.6,0-1.3-0.2-1.8-0.6l-11.9-8.9C56.4,39.9,56,39,56,38.1s0.4-1.8,1.2-2.4l11.9-8.9
			c1.3-1,3.2-0.7,4.2,0.6c1,1.3,0.7,3.2-0.6,4.2l-8.7,6.6l8.7,6.6c1.3,1,1.6,2.9,0.6,4.2C72.7,49.6,71.8,50,70.9,50z"/>
		<path class="st1" d="M29.1,50c-0.9,0-1.8-0.4-2.4-1.2c-1-1.3-0.7-3.2,0.6-4.2l8.7-6.6l-8.7-6.6c-1.3-1-1.6-2.9-0.6-4.2
			c1-1.3,2.9-1.6,4.2-0.6l11.9,8.9c0.8,0.6,1.2,1.4,1.2,2.4s-0.4,1.8-1.2,2.4l-11.9,8.9C30.4,49.8,29.8,50,29.1,50z"/>
		<path class="st1" d="M73.8,73.8c-0.4,0-0.9-0.1-1.3-0.3l-10.6-5.3l-10.6,5.3c-0.8,0.4-1.8,0.4-2.7,0l-10.6-5.3l-10.6,5.3
			c-1.5,0.7-3.3,0.1-4-1.3c-0.7-1.5-0.1-3.3,1.3-4l11.9-6c0.8-0.4,1.8-0.4,2.7,0L50,67.5l10.6-5.3c0.8-0.4,1.8-0.4,2.7,0l11.9,6
			c1.5,0.7,2.1,2.5,1.3,4C76,73.2,74.9,73.8,73.8,73.8z"/>
	</g>
</g>
</svg>
